<svg width="39" height="35" viewBox="0 0 39 35" fill="none" xmlns="http://www.w3.org/2000/svg">
<g id="fa6-brands:youtube">
<path id="Vector" d="M37.241 8.26468C36.8218 6.68941 35.5864 5.44878 34.018 5.02775C31.175 4.2627 19.7748 4.2627 19.7748 4.2627C19.7748 4.2627 8.37481 4.2627 5.53175 5.02775C3.96326 5.44884 2.72793 6.68941 2.30866 8.26468C1.54688 11.12 1.54688 17.0772 1.54688 17.0772C1.54688 17.0772 1.54688 23.0345 2.30866 25.8897C2.72793 27.465 3.96326 28.6539 5.53175 29.075C8.37481 29.84 19.7748 29.84 19.7748 29.84C19.7748 29.84 31.1749 29.84 34.018 29.075C35.5864 28.6539 36.8218 27.465 37.241 25.8897C38.0028 23.0345 38.0028 17.0772 38.0028 17.0772C38.0028 17.0772 38.0028 11.12 37.241 8.26468ZM16.0464 22.4859V11.6685L25.5746 17.0773L16.0464 22.4859Z" fill="white"/>
</g>
</svg>
