<svg width="169" height="169" viewBox="0 0 169 169" fill="none" xmlns="http://www.w3.org/2000/svg">
<g id="Isolation_Mode" clip-path="url(#clip0_75_2697)">
<path id="Vector" d="M74.4284 105.514L58.2328 53.5118L20.5189 33.7104L18.3301 34.3921L44.7946 119.367L74.4284 105.514Z" fill="url(#paint0_linear_75_2697)"/>
<path id="Vector_2" d="M30.4238 137.702L70.2615 158.618L168.358 128.067L129.168 106.952L30.4238 137.702Z" fill="#181818"/>
<path id="Vector_3" d="M168.359 128.067L137.251 28.1809L98.5 9.33508L128.924 107.025L168.359 128.067Z" fill="url(#paint1_linear_75_2697)"/>
<path id="Vector_4" d="M0 40.0117L30.0215 136.408L30.4245 137.702L128.924 107.025L98.5 9.33506L78.5752 15.5404L102.845 93.4686L44.0356 111.784L19.7658 33.8559L0 40.0117Z" fill="url(#paint2_linear_75_2697)"/>
<rect id="Rectangle 71" x="64" y="157" width="12" height="1279" fill="#D9D9D9"/>
</g>
<defs>
<linearGradient id="paint0_linear_75_2697" x1="33.8033" y1="29.5731" x2="60.2678" y2="114.548" gradientUnits="userSpaceOnUse">
<stop stop-color="#6B5B8E"/>
<stop offset="1" stop-color="#4F00FF"/>
</linearGradient>
<linearGradient id="paint1_linear_75_2697" x1="113.487" y1="4.66755" x2="153.372" y2="132.735" gradientUnits="userSpaceOnUse">
<stop stop-color="#6B5B8E"/>
<stop offset="1" stop-color="#4F00FF"/>
</linearGradient>
<linearGradient id="paint2_linear_75_2697" x1="49.25" y1="24.6734" x2="79.6745" y2="122.364" gradientUnits="userSpaceOnUse">
<stop stop-color="#B899FF"/>
<stop offset="1" stop-color="#3804AD"/>
</linearGradient>
<clipPath id="clip0_75_2697">
<rect width="134.56" height="134.134" fill="white" transform="translate(0 40.0117) rotate(-17.2986)"/>
</clipPath>
</defs>
</svg>
