<svg width="35" height="35" viewBox="0 0 35 35" fill="none" xmlns="http://www.w3.org/2000/svg">
<g id="mdi:linkedin">
<path id="Vector" d="M27.3213 4.2627C28.0751 4.2627 28.7979 4.56211 29.3309 5.09508C29.8639 5.62804 30.1633 6.3509 30.1633 7.10462V26.9981C30.1633 27.7518 29.8639 28.4747 29.3309 29.0076C28.7979 29.5406 28.0751 29.84 27.3213 29.84H7.42786C6.67414 29.84 5.95128 29.5406 5.41832 29.0076C4.88535 28.4747 4.58594 27.7518 4.58594 26.9981V7.10462C4.58594 6.3509 4.88535 5.62804 5.41832 5.09508C5.95128 4.56211 6.67414 4.2627 7.42786 4.2627H27.3213ZM26.6109 26.2876V18.7565C26.6109 17.5279 26.1228 16.3497 25.2541 15.481C24.3853 14.6122 23.2071 14.1242 21.9785 14.1242C20.7707 14.1242 19.364 14.8631 18.6819 15.9714V14.3942H14.7174V26.2876H18.6819V19.2823C18.6819 18.1881 19.5629 17.2929 20.657 17.2929C21.1846 17.2929 21.6906 17.5025 22.0637 17.8756C22.4368 18.2487 22.6464 18.7547 22.6464 19.2823V26.2876H26.6109ZM10.0993 12.1632C10.7324 12.1632 11.3396 11.9117 11.7873 11.464C12.235 11.0164 12.4865 10.4092 12.4865 9.77603C12.4865 8.45454 11.4208 7.3746 10.0993 7.3746C9.46238 7.3746 8.85156 7.62761 8.40121 8.07797C7.95085 8.52832 7.69785 9.13913 7.69785 9.77603C7.69785 11.0975 8.77778 12.1632 10.0993 12.1632ZM12.0744 26.2876V14.3942H8.13834V26.2876H12.0744Z" fill="white"/>
</g>
</svg>
