<svg width="35" height="35" viewBox="0 0 35 35" fill="none" xmlns="http://www.w3.org/2000/svg">
<g id="mdi:twitter">
<path id="Vector" d="M32.3144 8.52503C31.2203 9.02237 30.0409 9.34919 28.8189 9.5055C30.0693 8.75239 31.0356 7.55878 31.4903 6.1236C30.3109 6.83409 29.0036 7.33142 27.6253 7.61562C26.5027 6.39359 24.9254 5.68311 23.135 5.68311C19.7958 5.68311 17.0675 8.41135 17.0675 11.779C17.0675 12.2622 17.1243 12.7311 17.2238 13.1716C12.1652 12.9158 7.66073 10.486 4.6625 6.80567C4.13674 7.70087 3.83834 8.75239 3.83834 9.86074C3.83834 11.978 4.90406 13.8536 6.55238 14.9194C5.54349 14.9194 4.60566 14.6352 3.7815 14.2089V14.2515C3.7815 17.2071 5.88453 19.6796 8.66961 20.2338C7.77544 20.4785 6.83671 20.5125 5.92715 20.3332C6.3131 21.5446 7.06895 22.6045 8.08846 23.364C9.10797 24.1236 10.3399 24.5445 11.611 24.5677C9.4563 26.2735 6.78541 27.1955 4.03727 27.1823C3.55415 27.1823 3.07102 27.1539 2.58789 27.097C5.28772 28.8306 8.4991 29.8395 11.9378 29.8395C23.135 29.8395 29.2878 20.5464 29.2878 12.4895C29.2878 12.2195 29.2878 11.9638 29.2736 11.6938C30.4672 10.8412 31.4903 9.76127 32.3144 8.52503Z" fill="white"/>
</g>
</svg>
