<svg width="39" height="39" viewBox="0 0 39 39" fill="none" xmlns="http://www.w3.org/2000/svg">
<path id="Vector" d="M27.8234 9.30781H30.2594M11.9898 2H26.6055C29.1897 2 31.668 3.02657 33.4953 4.85388C35.3226 6.68118 36.3492 9.15954 36.3492 11.7437V26.3594C36.3492 28.9436 35.3226 31.4219 33.4953 33.2492C31.668 35.0765 29.1897 36.1031 26.6055 36.1031H11.9898C9.40564 36.1031 6.92728 35.0765 5.09997 33.2492C3.27266 31.4219 2.24609 28.9436 2.24609 26.3594V11.7437C2.24609 9.15954 3.27266 6.68118 5.09997 4.85388C6.92728 3.02657 9.40564 2 11.9898 2ZM19.2976 26.3594C17.3595 26.3594 15.5007 25.5894 14.1302 24.219C12.7598 22.8485 11.9898 20.9897 11.9898 19.0516C11.9898 17.1134 12.7598 15.2546 14.1302 13.8842C15.5007 12.5137 17.3595 11.7437 19.2976 11.7437C21.2358 11.7437 23.0946 12.5137 24.4651 13.8842C25.8355 15.2546 26.6055 17.1134 26.6055 19.0516C26.6055 20.9897 25.8355 22.8485 24.4651 24.219C23.0946 25.5894 21.2358 26.3594 19.2976 26.3594Z" stroke="white" stroke-width="3.93497"/>
</svg>
